<?xml version="1.0" standalone="no"?>
<!DOCTYPE svg PUBLIC "-//W3C//DTD SVG 20010904//EN"
 "http://www.w3.org/TR/2001/REC-SVG-20010904/DTD/svg10.dtd">
<svg version="1.0" xmlns="http://www.w3.org/2000/svg"
 width="673.000000pt" height="835.000000pt" viewBox="0 0 673.000000 835.000000"
 preserveAspectRatio="xMidYMid meet">

<g transform="translate(0.000000,835.000000) scale(0.100000,-0.100000)"
fill="#000000" stroke="none">
<path d="M3675 6878 l-110 -113 113 110 c104 102 117 115 109 115 -1 0 -52
-51 -112 -112z"/>
<path d="M2320 6546 c0 -2 8 -10 18 -17 15 -13 16 -12 3 4 -13 16 -21 21 -21
13z"/>
<path d="M1969 6393 l-24 -28 28 24 c25 23 32 31 24 31 -2 0 -14 -12 -28 -27z"/>
<path d="M4389 6373 c-13 -16 -12 -17 4 -4 9 7 17 15 17 17 0 8 -8 3 -21 -13z"/>
<path d="M3285 6357 c-100 -19 -238 -59 -264 -75 -24 -16 -16 -17 199 -23 188
-5 236 -10 293 -27 140 -43 223 -99 297 -200 68 -95 82 -139 84 -263 0 -103 0
-108 -37 -180 -20 -41 -48 -87 -61 -102 l-23 -29 -47 46 c-68 65 -126 100
-206 127 l-70 23 -63 -23 c-34 -12 -82 -34 -107 -48 -59 -35 -154 -132 -181
-186 -35 -69 -35 -69 -92 -34 -29 17 -86 56 -127 87 -41 31 -80 60 -87 63 -23
14 -23 -12 1 -40 13 -15 42 -59 66 -98 23 -38 67 -99 98 -133 l55 -64 3 -201
c2 -139 8 -233 20 -302 10 -55 18 -116 17 -136 -1 -39 -30 -110 -62 -149 -33
-41 -33 -17 0 47 33 64 50 172 32 195 -17 21 -22 56 -28 193 -4 72 -11 134
-16 140 -6 5 -9 4 -9 -3 0 -31 -188 -3 -258 39 -18 10 -35 19 -38 19 -2 0 -4
-17 -4 -37 0 -21 -5 -58 -11 -82 -9 -41 -7 -48 24 -100 19 -31 78 -128 130
-216 53 -88 105 -172 116 -187 20 -25 20 -26 2 -21 -10 3 -43 43 -72 89 -121
191 -149 236 -236 379 -85 140 -91 153 -86 192 8 58 -10 102 -98 243 -95 151
-94 150 -144 180 -33 21 -53 25 -116 25 -67 0 -81 -4 -125 -30 -64 -40 -104
-114 -104 -197 0 -47 7 -70 39 -130 97 -185 153 -258 219 -292 52 -26 73 -53
177 -221 90 -146 143 -232 172 -277 12 -21 23 -42 23 -47 0 -4 -17 -11 -37
-15 -108 -17 -187 -66 -247 -150 -48 -68 -74 -193 -57 -274 25 -113 146 -327
304 -537 92 -121 305 -383 366 -450 20 -22 81 -92 135 -155 55 -63 159 -178
232 -255 72 -77 141 -151 153 -165 l21 -25 106 110 c166 173 491 540 620 700
233 289 356 468 441 640 l55 110 -4 96 c-3 85 -7 102 -38 163 -55 107 -133
166 -251 190 l-59 12 71 114 c39 63 112 182 163 265 81 133 96 152 136 173 25
13 57 35 71 48 29 28 154 225 181 287 51 112 -20 268 -138 307 -57 19 -156 8
-203 -23 -36 -24 -93 -102 -186 -257 -35 -57 -40 -74 -44 -139 -3 -73 -4 -74
-99 -230 -85 -139 -125 -205 -157 -259 -22 -37 -79 -112 -82 -108 -6 6 29 78
68 136 20 30 64 102 98 158 60 99 62 105 50 134 -7 17 -13 52 -13 79 -1 37 -4
45 -14 37 -21 -18 -76 -118 -100 -182 -13 -33 -36 -72 -52 -88 -26 -24 -33
-26 -57 -18 -16 6 -45 30 -65 53 l-37 42 -1 -37 c0 -21 -7 -79 -16 -130 -14
-85 -13 -151 4 -197 5 -13 3 -14 -10 -3 -8 7 -21 32 -27 55 -10 36 -9 62 9
167 16 98 21 167 21 319 l-1 193 47 49 c25 26 55 61 65 76 47 70 108 206 108
245 0 9 7 21 16 26 9 5 12 12 7 15 -6 4 -8 37 -5 81 16 256 -173 545 -421 642
-128 50 -293 67 -422 41z m531 -210 c117 -108 164 -211 170 -370 6 -146 -28
-263 -107 -373 -54 -73 -163 -160 -234 -185 -22 -8 -43 -18 -47 -24 -4 -5 -8
4 -8 20 0 23 3 27 10 15 8 -13 10 -13 10 2 0 9 -6 18 -12 21 -8 3 -2 9 13 15
89 36 221 143 277 227 73 107 103 286 67 396 -39 121 -129 243 -240 327 l-30
23 34 -18 c19 -10 63 -44 97 -76z m-240 -612 c22 -13 47 -32 55 -42 13 -16 11
-16 -16 2 -49 31 -104 56 -148 65 -39 9 -38 9 13 4 31 -3 72 -15 96 -29z
m-191 15 c-3 -5 -12 -10 -18 -10 -7 0 -6 4 3 10 19 12 23 12 15 0z m325 -135
c13 -14 19 -25 14 -25 -8 1 -50 50 -41 50 2 0 14 -11 27 -25z m-1436 -47 c31
-32 158 -236 177 -285 17 -45 -20 -23 -46 27 -34 66 -138 225 -168 258 -25 26
-28 32 -13 32 10 0 33 -15 50 -32z m2406 27 c0 -6 -78 -119 -120 -175 -14 -19
-34 -54 -45 -77 -10 -24 -22 -43 -27 -43 -4 0 -8 -6 -8 -14 0 -8 -7 -16 -15
-20 -27 -10 -6 41 64 157 63 105 121 177 141 177 6 0 10 -2 10 -5z m185 -81
c20 -49 19 -77 -5 -125 -32 -62 -145 -232 -165 -249 -22 -17 -22 -19 38 73 81
123 117 199 117 250 0 27 -5 57 -10 68 -7 13 -7 19 0 19 5 0 17 -16 25 -36z
m-2805 -11 c-13 -57 4 -114 63 -208 6 -11 31 -50 55 -88 23 -37 42 -70 42 -73
0 -32 -168 222 -186 281 -10 33 -9 48 2 80 8 22 14 41 14 43 0 1 4 2 9 2 5 0
5 -16 1 -37z m1432 -70 c24 -22 25 -118 1 -145 -20 -22 -56 -23 -77 -2 -25 25
-21 112 6 141 25 27 45 29 70 6z m-302 -12 c25 -6 64 -11 88 -11 36 0 43 -3
40 -17 -5 -23 -70 -19 -145 9 -50 18 -89 47 -47 34 11 -3 39 -10 64 -15z
m1423 -275 c-1 -20 -15 -56 -37 -90 -19 -30 -63 -102 -98 -158 -51 -85 -122
-201 -245 -396 -8 -13 -17 -21 -20 -18 -4 3 0 14 9 23 14 17 42 62 148 238 25
41 84 139 132 217 48 79 90 155 93 169 4 17 0 39 -10 60 l-17 34 23 -22 c16
-16 23 -33 22 -57z m-2293 45 c-20 -38 -10 -74 48 -169 31 -53 68 -114 80
-137 13 -22 30 -51 39 -63 8 -13 13 -25 11 -28 -2 -2 -28 36 -57 84 -29 48
-75 123 -102 167 -27 44 -49 88 -49 97 0 23 21 68 32 68 5 0 4 -9 -2 -19z
m159 -75 c17 -28 41 -70 55 -93 23 -37 24 -41 7 -36 -18 5 -41 41 -41 66 0 7
-14 21 -30 32 -30 20 -39 35 -20 35 6 0 10 5 10 10 0 6 -6 10 -14 10 -16 0
-48 45 -39 54 10 10 40 -23 72 -78z m2015 56 c-4 -12 -15 -24 -26 -27 -11 -4
-18 -14 -16 -25 2 -10 -7 -29 -20 -43 -13 -14 -24 -31 -26 -38 -3 -23 -20 -45
-39 -52 -11 -4 -17 -15 -15 -25 2 -10 -12 -35 -30 -56 -17 -20 -32 -44 -32
-52 0 -9 -9 -23 -20 -32 -10 -10 -20 -23 -22 -31 -2 -8 -12 -25 -22 -38 -11
-13 -21 -29 -22 -37 -1 -10 -41 -71 -81 -125 -2 -2 -6 -2 -9 2 -3 3 16 41 42
84 27 42 54 85 59 94 16 28 117 195 174 289 74 123 120 171 105 112z m-1218
-70 c25 -13 69 -62 77 -84 9 -24 -16 -23 -69 3 -39 19 -84 71 -84 97 0 11 42
3 76 -16z m554 -8 c0 -19 -4 -33 -9 -29 -5 3 -33 -17 -61 -45 -77 -75 -104
-82 -34 -9 33 35 69 76 78 92 10 15 20 27 22 27 2 0 4 -16 4 -36z m-120 19 c0
-32 -103 -113 -145 -113 -37 0 7 70 63 100 36 19 82 26 82 13z m-1115 -189
c11 -21 39 -66 61 -99 59 -89 59 -89 43 -80 -30 17 -58 48 -52 58 3 6 -1 15
-9 21 -19 14 -43 58 -40 74 2 6 -2 12 -9 12 -14 0 -38 30 -39 48 0 25 24 6 45
-34z m1065 21 c0 -2 -13 -11 -30 -20 -16 -9 -30 -12 -30 -7 0 4 12 13 28 19
15 6 28 11 30 12 1 1 2 -1 2 -4z m-877 -322 c63 -97 82 -133 71 -133 -10 0
-49 54 -49 68 0 8 -7 19 -16 25 -17 13 -44 58 -42 68 1 4 -7 15 -17 24 -18 16
-27 45 -15 45 2 0 33 -44 68 -97z m-134 -61 c29 -46 51 -86 48 -88 -2 -2 -32
42 -67 98 -34 57 -55 96 -48 88 8 -8 38 -52 67 -98z m1375 76 c-31 -54 -48
-69 -72 -66 -14 2 -27 8 -29 15 -3 7 3 10 15 6 13 -3 32 6 53 26 37 34 44 37
33 19z m402 -267 c55 -25 121 -85 145 -132 11 -23 19 -59 19 -90 0 -66 -11
-57 -21 17 -10 73 -45 117 -130 163 -64 36 -65 36 -189 36 -80 0 -134 -5 -150
-12 -41 -21 -150 -11 -150 13 0 10 27 14 113 17 299 8 320 7 363 -12z"/>
<path d="M2530 6335 c13 -14 26 -25 28 -25 3 0 -5 11 -18 25 -13 14 -26 25
-28 25 -3 0 5 -11 18 -25z"/>
<path d="M1885 6310 c-21 -22 -35 -40 -30 -39 10 1 82 79 73 79 -2 0 -22 -18
-43 -40z"/>
<path d="M1715 6138 l-60 -63 63 60 c58 55 67 65 59 65 -1 0 -29 -28 -62 -62z"/>
<path d="M3580 6136 c0 -2 8 -10 18 -17 15 -13 16 -12 3 4 -13 16 -21 21 -21
13z"/>
<path d="M5334 6108 l-29 -33 33 29 c30 28 37 36 29 36 -2 0 -16 -15 -33 -32z"/>
<path d="M3639 6078 c7 -10 13 -56 14 -115 2 -115 -18 -173 -75 -217 -53 -39
-98 -34 -123 15 -22 41 -19 53 25 104 43 49 64 103 58 150 l-3 30 -31 -50
c-17 -27 -65 -86 -106 -130 -41 -44 -82 -94 -91 -111 -15 -29 -26 -118 -16
-128 3 -3 34 6 69 21 78 31 127 28 221 -15 l64 -30 6 67 c3 36 18 101 33 143
22 61 27 87 22 125 -3 26 -7 57 -9 69 -1 12 -17 36 -36 55 -19 19 -29 26 -22
17z"/>
<path d="M1630 6057 c-8 -7 -26 -26 -40 -42 l-25 -30 26 23 c14 12 27 20 30
18 2 -3 9 6 16 20 6 13 10 24 10 24 -1 0 -9 -6 -17 -13z"/>
<path d="M5275 6052 c-5 -4 -21 -21 -35 -37 -18 -22 -19 -25 -4 -12 11 9 25
17 31 17 6 0 13 9 16 20 6 22 6 22 -8 12z"/>
<path d="M1440 5863 l-115 -118 118 115 c64 63 117 116 117 117 0 8 -13 -5
-120 -114z"/>
<path d="M5174 5948 l-19 -23 23 19 c21 18 27 26 19 26 -2 0 -12 -10 -23 -22z"/>
<path d="M615 5820 c71 -71 132 -130 135 -130 2 0 -54 59 -125 130 -71 72
-132 130 -135 130 -2 0 54 -58 125 -130z"/>
<path d="M6265 5825 c-232 -236 -269 -275 -265 -275 3 0 93 88 200 195 107
107 190 194 185 193 -6 0 -59 -52 -120 -113z"/>
<path d="M795 5640 c21 -22 41 -40 44 -40 3 0 -13 18 -34 40 -21 22 -41 40
-44 40 -3 0 13 -18 34 -40z"/>
<path d="M890 5546 c0 -2 8 -10 18 -17 15 -13 16 -12 3 4 -13 16 -21 21 -21
13z"/>
<path d="M815 5248 c-61 -62 -96 -103 -80 -91 41 30 212 203 200 203 -6 0 -60
-50 -120 -112z"/>
<path d="M2140 4522 c75 -61 221 -205 238 -235 19 -32 35 -32 115 2 l47 20
-67 111 -67 110 -91 0 c-49 0 -115 7 -145 15 -78 21 -81 19 -30 -23z"/>
<path d="M4760 4548 c-14 -6 -79 -12 -145 -14 -104 -2 -121 -5 -130 -21 -5
-10 -34 -59 -62 -109 -29 -50 -53 -94 -53 -96 0 -3 19 -11 43 -18 62 -18 113
-46 157 -86 44 -40 44 -40 55 61 9 83 43 149 114 220 74 74 79 88 21 63z"/>
<path d="M5229 3954 c-140 -151 -419 -244 -419 -139 0 25 33 55 62 55 32 0 27
17 -13 50 -43 34 -100 53 -136 44 -18 -5 -22 -15 -27 -62 -3 -32 -6 -66 -6
-77 -1 -34 -105 -234 -176 -340 -171 -255 -310 -426 -748 -921 -22 -24 -37
-46 -35 -48 10 -11 615 267 693 317 129 84 216 178 353 383 12 18 27 35 33 39
5 3 10 13 10 21 0 12 -4 12 -20 4 -35 -19 -129 -14 -159 7 -34 26 -71 91 -71
126 0 55 55 135 133 195 67 50 118 76 204 103 188 59 238 84 300 152 36 39 63
100 51 113 -3 2 -15 -8 -29 -22z"/>
<path d="M2155 3867 c-58 -58 -130 -89 -197 -83 -29 2 -61 7 -70 11 -33 13
-19 -13 31 -57 27 -25 109 -76 181 -114 144 -75 210 -126 240 -185 57 -110
-23 -173 -196 -155 -59 6 -82 -2 -54 -19 21 -13 150 -197 145 -206 -4 -5 -3
-8 2 -7 4 1 49 -40 98 -91 95 -98 245 -206 365 -263 72 -35 440 -161 448 -154
2 3 -20 31 -50 63 -104 110 -403 465 -509 603 -237 309 -361 522 -376 651 -3
27 -9 48 -12 48 -3 -1 -24 -20 -46 -42z"/>
<path d="M1469 3473 c-13 -16 -12 -17 4 -4 9 7 17 15 17 17 0 8 -8 3 -21 -13z"/>
<path d="M1399 3403 l-34 -38 38 34 c34 33 42 41 34 41 -2 0 -19 -17 -38 -37z"/>
<path d="M2039 2823 l-24 -28 28 24 c25 23 32 31 24 31 -2 0 -14 -12 -28 -27z"/>
<path d="M1960 2745 c-24 -25 -42 -45 -39 -45 3 0 25 20 49 45 24 25 42 45 39
45 -3 0 -25 -20 -49 -45z"/>
<path d="M2620 2675 c-8 -9 -8 -15 -2 -15 12 0 26 19 19 26 -2 2 -10 -2 -17
-11z"/>
<path d="M4390 2670 c0 -5 5 -10 10 -10 6 0 10 5 10 10 0 6 -4 10 -10 10 -5 0
-10 -4 -10 -10z"/>
<path d="M3219 2383 l-24 -28 28 24 c15 14 27 26 27 28 0 8 -8 1 -31 -24z"/>
<path d="M2444 2018 l-19 -23 23 19 c21 18 27 26 19 26 -2 0 -12 -10 -23 -22z"/>
<path d="M3225 1580 c-66 -66 -117 -120 -115 -120 3 0 59 54 125 120 66 66
117 120 115 120 -3 0 -59 -54 -125 -120z"/>
</g>
</svg>
